<svg width="18" height="18" viewBox="0 0 18 18" fill="none" xmlns="http://www.w3.org/2000/svg">
<path d="M5.46712 3.68062C7.8181 3.47625 10.1824 3.47625 12.5334 3.68062L13.666 3.77908C14.4201 3.84463 15.0658 4.29438 15.4005 4.93771C15.4433 5.02001 15.4112 5.11966 15.3323 5.16849L10.6328 8.07768C9.62494 8.70162 8.35406 8.71471 7.33352 8.11167L2.60265 5.31615C2.52621 5.27099 2.49113 5.17802 2.52558 5.09619C2.83169 4.36902 3.51992 3.84988 4.33444 3.77908L5.46712 3.68062Z" fill="white"/>
<path d="M2.52173 6.57507C2.40475 6.50595 2.2555 6.58033 2.24187 6.71551C2.05157 8.60224 2.09762 10.5068 2.38004 12.3849C2.52893 13.375 3.33698 14.134 4.33444 14.2207L5.46712 14.3192C7.8181 14.5236 10.1824 14.5236 12.5334 14.3192L13.666 14.2207C14.6635 14.134 15.4715 13.375 15.6204 12.3849C15.9111 10.4521 15.9514 8.49121 15.7414 6.55062C15.7266 6.41448 15.5748 6.34147 15.4584 6.41354L11.225 9.03423C9.86136 9.87838 8.14193 9.8961 6.7612 9.08021L2.52173 6.57507Z" fill="white"/>
</svg>
