<svg width="18" height="18" viewBox="0 0 18 18" fill="none" xmlns="http://www.w3.org/2000/svg">
<path d="M8.99953 6.56241C7.65333 6.56241 6.56203 7.65372 6.56203 8.99991C6.56203 10.3461 7.65333 11.4374 8.99953 11.4374C10.3457 11.4374 11.437 10.3461 11.437 8.99991C11.437 7.65372 10.3457 6.56241 8.99953 6.56241Z" fill="white"/>
<path fill-rule="evenodd" clip-rule="evenodd" d="M5.07668 2.31101C7.66277 2.02198 10.3363 2.02198 12.9224 2.31101C14.3462 2.47014 15.4946 3.59198 15.6617 5.02077C15.9709 7.66452 15.9709 10.3353 15.6617 12.9791C15.4946 14.4078 14.3462 15.5297 12.9224 15.6888C10.3363 15.9778 7.66277 15.9778 5.07668 15.6888C3.65288 15.5297 2.50449 14.4078 2.33738 12.9791C2.02817 10.3353 2.02817 7.66452 2.33738 5.02077C2.50449 3.59198 3.65288 2.47014 5.07668 2.31101ZM12.7495 4.49991C12.3353 4.49991 11.9995 4.8357 11.9995 5.24991C11.9995 5.66413 12.3353 5.99991 12.7495 5.99991C13.1637 5.99991 13.4995 5.66413 13.4995 5.24991C13.4995 4.8357 13.1637 4.49991 12.7495 4.49991ZM5.43703 8.99991C5.43703 7.0324 7.03201 5.43741 8.99953 5.43741C10.967 5.43741 12.562 7.0324 12.562 8.99991C12.562 10.9674 10.967 12.5624 8.99953 12.5624C7.03201 12.5624 5.43703 10.9674 5.43703 8.99991Z" fill="white"/>
</svg>
