<svg width="18" height="18" viewBox="0 0 18 18" fill="none" xmlns="http://www.w3.org/2000/svg">
<path fill-rule="evenodd" clip-rule="evenodd" d="M13.8627 14.8427L13.8632 14.8414L13.8763 14.8087L16.1254 3.46944V3.43261C16.1254 3.15009 16.021 2.90344 15.7938 2.7555C15.595 2.626 15.3664 2.61678 15.2061 2.62894C15.0366 2.64181 14.8768 2.68412 14.7661 2.71934C14.7092 2.73746 14.6616 2.75492 14.6275 2.76813C14.6104 2.77475 14.5965 2.78038 14.5865 2.78457L14.5766 2.78873L2.03669 7.70794L2.03324 7.70917C2.02647 7.71164 2.01751 7.71498 2.00669 7.71919C1.98513 7.72759 1.95577 7.7396 1.92129 7.75523C1.85358 7.78592 1.76002 7.83327 1.66515 7.89824C1.50401 8.00859 1.19717 8.26983 1.24898 8.684C1.2919 9.02706 1.52838 9.24493 1.6878 9.35774C1.77327 9.41821 1.85502 9.46181 1.9149 9.49031C1.94523 9.50476 1.971 9.51582 1.99019 9.52363C1.99981 9.52755 2.00786 9.53068 2.01408 9.53304L2.02205 9.53602L2.02714 9.53791L4.22107 10.2765C4.21367 10.4142 4.22732 10.5545 4.26383 10.693L5.36279 14.8618C5.49309 15.3561 5.94026 15.7004 6.45144 15.7C6.90964 15.6997 7.31601 15.4225 7.48865 15.0089L9.20441 13.1744L12.1511 15.4336L12.193 15.4518C12.4608 15.5687 12.7109 15.6057 12.9396 15.5744C13.168 15.5432 13.3494 15.4475 13.4858 15.3384C13.6199 15.2311 13.7118 15.11 13.7697 15.0188C13.799 14.9724 13.8209 14.9317 13.8361 14.9011C13.8437 14.8857 13.8498 14.8727 13.8543 14.8625L13.8599 14.8494L13.8619 14.8446L13.8627 14.8427ZM5.35163 10.4062C5.32665 10.3115 5.36586 10.2114 5.44858 10.1589L12.8901 5.43324C12.8901 5.43324 13.3278 5.16752 13.3121 5.43324C13.3121 5.43324 13.3902 5.48016 13.1557 5.69896C12.9332 5.90677 7.85195 10.8126 7.3378 11.309C7.30812 11.3376 7.2904 11.3705 7.27994 11.4104L6.45059 14.575L5.35163 10.4062Z" fill="white"/>
</svg>
