<svg width="18" height="16" viewBox="0 0 18 16" fill="none" xmlns="http://www.w3.org/2000/svg">
<path fill-rule="evenodd" clip-rule="evenodd" d="M13.8627 13.1934L13.8632 13.1922L13.8763 13.1632L16.1254 3.08387V3.05113C16.1254 2.8 16.021 2.58076 15.7938 2.44925C15.595 2.33414 15.3664 2.32594 15.2061 2.33676C15.0366 2.34819 14.8768 2.3858 14.7661 2.41711C14.7092 2.43322 14.6616 2.44874 14.6275 2.46047C14.6104 2.46637 14.5965 2.47136 14.5865 2.47509L14.5766 2.47879L2.03669 6.85142L2.03324 6.85252C2.02647 6.85471 2.01751 6.85768 2.00669 6.86142C1.98513 6.86888 1.95577 6.87956 1.92129 6.89345C1.85358 6.92073 1.76002 6.96283 1.66515 7.02058C1.50401 7.11867 1.19717 7.35088 1.24898 7.71903C1.2919 8.02397 1.52838 8.21764 1.6878 8.31791C1.77327 8.37166 1.85502 8.41042 1.9149 8.43575C1.94523 8.44859 1.971 8.45842 1.99019 8.46537C1.99981 8.46885 2.00786 8.47164 2.01408 8.47374L2.02205 8.47638L2.02714 8.47806L4.22107 9.1346C4.21367 9.25695 4.22732 9.38171 4.26383 9.5048L5.36279 13.2104C5.49309 13.6498 5.94026 13.9558 6.45144 13.9555C6.90964 13.9552 7.31601 13.7088 7.48865 13.3412L9.20441 11.7105L12.1511 13.7186L12.193 13.7349C12.4608 13.8387 12.7109 13.8716 12.9396 13.8439C13.168 13.8161 13.3494 13.731 13.4858 13.6341C13.6199 13.5387 13.7118 13.431 13.7697 13.3499C13.799 13.3088 13.8209 13.2726 13.8361 13.2453C13.8437 13.2316 13.8498 13.2201 13.8543 13.211L13.8599 13.1994L13.8619 13.1951L13.8627 13.1934ZM5.35163 9.24989C5.32665 9.16567 5.36586 9.07676 5.44858 9.03007L12.8901 4.82946C12.8901 4.82946 13.3278 4.59327 13.3121 4.82946C13.3121 4.82946 13.3902 4.87118 13.1557 5.06566C12.9332 5.25038 7.85195 9.61108 7.3378 10.0523C7.30812 10.0778 7.2904 10.107 7.27994 10.1425L6.45059 12.9555L5.35163 9.24989Z" fill="white"/>
</svg>
