<svg width="18" height="18" viewBox="0 0 18 18" fill="none" xmlns="http://www.w3.org/2000/svg">
<g clip-path="url(#clip0_247_75)">
<path d="M15.7529 4.74734C13.7319 4.53031 12.5364 3.27953 12.2215 1.22948C12.2015 1.09919 12.0888 1.00025 11.9544 1.00049L9.7561 1.0044C9.61028 1.00466 9.49216 1.12064 9.49216 1.26363V10.5626C9.8986 15.6655 5.01158 14.8927 4.63452 12.2812C4.43865 10.9179 5.14379 10.145 6.38758 9.73214C6.73228 9.61683 7.10384 9.52462 7.46336 9.45813C7.59093 9.43456 7.68524 9.32655 7.68524 9.19924V6.99572C7.68524 6.84893 7.55787 6.73117 7.40842 6.74082C2.05815 7.08756 1.05472 11.8816 2.76883 14.6334C5.48167 18.9827 12.2295 17.0865 12.2295 11.0187V6.4466C12.2295 6.35683 12.3298 6.30153 12.4088 6.34694C13.5794 7.01977 14.6142 7.39152 15.7608 7.33925C15.8968 7.33305 16 7.22058 16 7.08717V5.01128C16 4.87468 15.8914 4.76221 15.7529 4.74734Z" fill="white"/>
</g>
<defs>
<clipPath id="clip0_247_75">
<rect width="14" height="16" fill="white" transform="translate(2 1)"/>
</clipPath>
</defs>
</svg>
